<?xml version="1.0" encoding="UTF-8" standalone="no"?>
<svg
   xmlns:dc="http://purl.org/dc/elements/1.1/"
   xmlns:cc="http://creativecommons.org/ns#"
   xmlns:rdf="http://www.w3.org/1999/02/22-rdf-syntax-ns#"
   xmlns:svg="http://www.w3.org/2000/svg"
   xmlns="http://www.w3.org/2000/svg"
   xmlns:sodipodi="http://sodipodi.sourceforge.net/DTD/sodipodi-0.dtd"
   xmlns:inkscape="http://www.inkscape.org/namespaces/inkscape"
   inkscape:version="1.0 (4035a4fb49, 2020-05-01)"
   sodipodi:docname="SideDoorHousing.svg"
   id="svg171"
   version="1.1"
   width="516.90mm"
   viewBox="0.0 0.0 516.90 121.90"
   height="121.90mm">
  <g
     style="stroke:#ff0000;stroke-width:0.01;stroke-miterlimit:4;stroke-dasharray:none;stroke-opacity:1"
     transform="rotate(90,173.55184,130.80663)"
     id="g1155">
    <circle
       style="fill:none;stroke:#ff0000;stroke-width:0.01;stroke-linecap:round;stroke-miterlimit:4;stroke-dasharray:none;stroke-opacity:1;paint-order:fill markers stroke"
       id="path1019"
       cx="37.436836"
       cy="42.823914"
       r="2.727638" />
    <circle
       r="2.7276382"
       cy="42.346581"
       cx="45.006023"
       id="path1019-4"
       style="fill:none;stroke:#ff0000;stroke-width:0.01;stroke-linecap:round;stroke-miterlimit:4;stroke-dasharray:none;stroke-opacity:1;paint-order:fill markers stroke" />
    <circle
       style="fill:none;stroke:#ff0000;stroke-width:0.01;stroke-linecap:round;stroke-miterlimit:4;stroke-dasharray:none;stroke-opacity:1;paint-order:fill markers stroke"
       id="path1019-4-3"
       cx="51.961502"
       cy="44.869644"
       r="2.7276385" />
    <circle
       style="fill:none;stroke:#ff0000;stroke-width:0.01;stroke-linecap:round;stroke-miterlimit:4;stroke-dasharray:none;stroke-opacity:1;paint-order:fill markers stroke"
       id="path1019-4-6"
       cx="57.689548"
       cy="49.847588"
       r="2.7276385" />
    <circle
       r="2.7276382"
       cy="-79.783417"
       cx="47.392708"
       id="path1019-8"
       style="fill:none;stroke:#ff0000;stroke-width:0.01;stroke-linecap:round;stroke-miterlimit:4;stroke-dasharray:none;stroke-opacity:1;paint-order:fill markers stroke"
       transform="scale(1,-1)" />
    <circle
       style="fill:none;stroke:#ff0000;stroke-width:0.01;stroke-linecap:round;stroke-miterlimit:4;stroke-dasharray:none;stroke-opacity:1;paint-order:fill markers stroke"
       id="path1019-4-4"
       cx="53.802654"
       cy="-76.510246"
       r="2.7276385"
       transform="scale(1,-1)" />
    <circle
       r="2.7276385"
       cy="-71.123169"
       cx="58.985161"
       id="path1019-4-3-2"
       style="fill:none;stroke:#ff0000;stroke-width:0.01;stroke-linecap:round;stroke-miterlimit:4;stroke-dasharray:none;stroke-opacity:1;paint-order:fill markers stroke"
       transform="scale(1,-1)" />
    <circle
       r="2.7276385"
       cy="-56.530296"
       cx="60.894512"
       id="path1019-4-6-1"
       style="fill:none;stroke:#ff0000;stroke-width:0.01;stroke-linecap:round;stroke-miterlimit:4;stroke-dasharray:none;stroke-opacity:1;paint-order:fill markers stroke"
       transform="scale(1,-1)" />
    <circle
       transform="scale(1,-1)"
       style="fill:none;stroke:#ff0000;stroke-width:0.01;stroke-linecap:round;stroke-miterlimit:4;stroke-dasharray:none;stroke-opacity:1;paint-order:fill markers stroke"
       id="path1019-4-6-1-6"
       cx="61.303669"
       cy="-64.099495"
       r="2.7276385" />
    <circle
       r="2.7276382"
       cy="46.403942"
       cx="-30.549549"
       id="path1019-6"
       style="fill:none;stroke:#ff0000;stroke-width:0.01;stroke-linecap:round;stroke-miterlimit:4;stroke-dasharray:none;stroke-opacity:1;paint-order:fill markers stroke"
       transform="scale(-1,1)" />
    <circle
       style="fill:none;stroke:#ff0000;stroke-width:0.01;stroke-linecap:round;stroke-miterlimit:4;stroke-dasharray:none;stroke-opacity:1;paint-order:fill markers stroke"
       id="path1019-4-9"
       cx="-25.912577"
       cy="52.131985"
       r="2.7276385"
       transform="scale(-1,1)" />
    <circle
       r="2.7276385"
       cy="58.814693"
       cx="-23.59408"
       id="path1019-4-3-3"
       style="fill:none;stroke:#ff0000;stroke-width:0.01;stroke-linecap:round;stroke-miterlimit:4;stroke-dasharray:none;stroke-opacity:1;paint-order:fill markers stroke"
       transform="scale(-1,1)" />
    <circle
       transform="scale(-1)"
       style="fill:none;stroke:#ff0000;stroke-width:0.01;stroke-linecap:round;stroke-miterlimit:4;stroke-dasharray:none;stroke-opacity:1;paint-order:fill markers stroke"
       id="path1019-8-1"
       cx="-24.003225"
       cy="-66.520279"
       r="2.7276385" />
    <circle
       transform="scale(-1)"
       r="2.7276385"
       cy="-73.134796"
       cx="-27.27639"
       id="path1019-4-4-1"
       style="fill:none;stroke:#ff0000;stroke-width:0.01;stroke-linecap:round;stroke-miterlimit:4;stroke-dasharray:none;stroke-opacity:1;paint-order:fill markers stroke" />
    <circle
       transform="scale(-1)"
       style="fill:none;stroke:#ff0000;stroke-width:0.01;stroke-linecap:round;stroke-miterlimit:4;stroke-dasharray:none;stroke-opacity:1;paint-order:fill markers stroke"
       id="path1019-4-3-2-7"
       cx="-32.868057"
       cy="-77.976357"
       r="2.7276385" />
    <circle
       r="2.7276385"
       cy="-80.363037"
       cx="-39.959896"
       id="path1019-4-6-1-6-7"
       style="fill:none;stroke:#ff0000;stroke-width:0.01;stroke-linecap:round;stroke-miterlimit:4;stroke-dasharray:none;stroke-opacity:1;paint-order:fill markers stroke"
       transform="scale(-1)" />
  </g>
  <defs
     id="defs175" />
  <sodipodi:namedview
     inkscape:current-layer="svg171"
     inkscape:window-maximized="1"
     inkscape:window-y="-8"
     inkscape:window-x="-8"
     inkscape:cy="-386.05653"
     inkscape:cx="937.62078"
     inkscape:zoom="0.24250223"
     showgrid="false"
     id="namedview173"
     inkscape:window-height="1017"
     inkscape:window-width="1920"
     inkscape:pageshadow="2"
     inkscape:pageopacity="0"
     guidetolerance="10"
     gridtolerance="10"
     objecttolerance="10"
     borderopacity="1"
     bordercolor="#666666"
     pagecolor="#ffffff" />
  <!--
SideDoorHousing - Box with service hatches on either one or both of the sides that are locked with latches



This box is designed as a housing for electronic projects but could be used for other purposes. It has hatches that can be re-opened with simple tools. If built from thin enough material, it intentionally cannot be opened with bare hands.

The hatches are on the x sides.

#### Assembly instructions
The main body is easy to assemble:
1. Starting with the floor and then add the four walls (for any removable sides, the wall will just be a small part on the base )
2. Add the top piece

For the removable walls:
1. Add the lips to the removable walls
2. Sit the latches in place (it is importand to make sure the springs on the latches point inwards and the angled ends point to the side walls. See image below)
3. Glue the U-shaped clamps in place (it is important **not** to glue the latches)

![Wall details](static/samples/SideDoorHousing.jpg)


#### Re-Opening

The latches lock in place when closed. To open them they need to be pressed in and can then be moved aside.

![Closed Box](static/samples/SideDoorHousing-2.jpg)




Created with Boxes.py (https://festi.info/boxes.py)
Creation date: 2024-05-16 14:28:54
Command line (remove spaces between dashes): boxes SideDoorHousing - -x=55 - -y=69 - -h=75
Url: http://boxes.hackerspace-bamberg.de/boxes.py/SideDoorHousing?FingerJoint_angle=90.0&FingerJoint_style=rectangular&FingerJoint_surroundingspaces=0.5&FingerJoint_bottom_lip=0.0&FingerJoint_edge_width=1.0&FingerJoint_extra_length=0.0&FingerJoint_finger=2.0&FingerJoint_play=0.0&FingerJoint_space=2.0&FingerJoint_width=1.0&Stackable_angle=60&Stackable_bottom_stabilizers=0.0&Stackable_height=2.0&Stackable_holedistance=1.0&Stackable_width=4.0&x=55&y=69&h=75&bottom_edge=s&double_door=0&double_door=1&thickness=3.0&format=svg&tabs=0.0&qr_code=0&debug=0&labels=0&labels=1&reference=100.0&inner_corners=loop&burn=0.1&language=fr&render=2
Url short: http://boxes.hackerspace-bamberg.de/boxes.py/SideDoorHousing?x=55&y=69&h=75
SettingsUrl: http://boxes.hackerspace-bamberg.de/boxes.py/SideDoorHousing?FingerJoint_angle=90.0&FingerJoint_style=rectangular&FingerJoint_surroundingspaces=0.5&FingerJoint_bottom_lip=0.0&FingerJoint_edge_width=1.0&FingerJoint_extra_length=0.0&FingerJoint_finger=2.0&FingerJoint_play=0.0&FingerJoint_space=2.0&FingerJoint_width=1.0&Stackable_angle=60&Stackable_bottom_stabilizers=0.0&Stackable_height=2.0&Stackable_holedistance=1.0&Stackable_width=4.0&x=55&y=69&h=75&bottom_edge=s&double_door=0&double_door=1&thickness=3.0&format=svg&tabs=0.0&qr_code=0&debug=0&labels=0&labels=1&reference=100.0&inner_corners=loop&burn=0.1&language=fr&render=2
SettingsUrl short: http://boxes.hackerspace-bamberg.de/boxes.py/SideDoorHousing?x=55&y=69&h=75
-->
  <title
     id="title2">SideDoorHousing</title>
  <metadata
     id="metadata4">
    <rdf:RDF>
      <cc:Work>
        <dc:title>SideDoorHousing</dc:title>
        <dc:date>2024-05-16 14:28:54</dc:date>
        <dc:source>http://boxes.hackerspace-bamberg.de/boxes.py/SideDoorHousing?FingerJoint_angle=90.0&amp;FingerJoint_style=rectangular&amp;FingerJoint_surroundingspaces=0.5&amp;FingerJoint_bottom_lip=0.0&amp;FingerJoint_edge_width=1.0&amp;FingerJoint_extra_length=0.0&amp;FingerJoint_finger=2.0&amp;FingerJoint_play=0.0&amp;FingerJoint_space=2.0&amp;FingerJoint_width=1.0&amp;Stackable_angle=60&amp;Stackable_bottom_stabilizers=0.0&amp;Stackable_height=2.0&amp;Stackable_holedistance=1.0&amp;Stackable_width=4.0&amp;x=55&amp;y=69&amp;h=75&amp;bottom_edge=s&amp;double_door=0&amp;double_door=1&amp;thickness=3.0&amp;format=svg&amp;tabs=0.0&amp;qr_code=0&amp;debug=0&amp;labels=0&amp;labels=1&amp;reference=100.0&amp;inner_corners=loop&amp;burn=0.1&amp;language=fr&amp;render=2</dc:source>
        <dc:source>http://boxes.hackerspace-bamberg.de/boxes.py/SideDoorHousing?x=55&amp;y=69&amp;h=75</dc:source>
        <dc:description>Box with service hatches on either one or both of the sides that are locked with latches


This box is designed as a housing for electronic projects but could be used for other purposes. It has hatches that can be re-opened with simple tools. If built from thin enough material, it intentionally cannot be opened with bare hands.

The hatches are on the x sides.

#### Assembly instructions
The main body is easy to assemble:
1. Starting with the floor and then add the four walls (for any removable sides, the wall will just be a small part on the base )
2. Add the top piece

For the removable walls:
1. Add the lips to the removable walls
2. Sit the latches in place (it is importand to make sure the springs on the latches point inwards and the angled ends point to the side walls. See image below)
3. Glue the U-shaped clamps in place (it is important **not** to glue the latches)

![Wall details](static/samples/SideDoorHousing.jpg)


#### Re-Opening

The latches lock in place when closed. To open them they need to be pressed in and can then be moved aside.

![Closed Box](static/samples/SideDoorHousing-2.jpg)



Created with Boxes.py (https://festi.info/boxes.py)
Command line: boxes SideDoorHousing --FingerJoint_angle=90.0 --FingerJoint_style=rectangular --FingerJoint_surroundingspaces=0.5 --FingerJoint_bottom_lip=0.0 --FingerJoint_edge_width=1.0 --FingerJoint_extra_length=0.0 --FingerJoint_finger=2.0 --FingerJoint_play=0.0 --FingerJoint_space=2.0 --FingerJoint_width=1.0 --Stackable_angle=60 --Stackable_bottom_stabilizers=0.0 --Stackable_height=2.0 --Stackable_holedistance=1.0 --Stackable_width=4.0 --x=55 --y=69 --h=75 --bottom_edge=s --double_door=0 --double_door=1 --thickness=3.0 --format=svg --tabs=0.0 --qr_code=0 --debug=0 --labels=0 --labels=1 --reference=100.0 --inner_corners=loop --burn=0.1
Command line short: boxes SideDoorHousing --x=55 --y=69 --h=75
Url: http://boxes.hackerspace-bamberg.de/boxes.py/SideDoorHousing?FingerJoint_angle=90.0&amp;FingerJoint_style=rectangular&amp;FingerJoint_surroundingspaces=0.5&amp;FingerJoint_bottom_lip=0.0&amp;FingerJoint_edge_width=1.0&amp;FingerJoint_extra_length=0.0&amp;FingerJoint_finger=2.0&amp;FingerJoint_play=0.0&amp;FingerJoint_space=2.0&amp;FingerJoint_width=1.0&amp;Stackable_angle=60&amp;Stackable_bottom_stabilizers=0.0&amp;Stackable_height=2.0&amp;Stackable_holedistance=1.0&amp;Stackable_width=4.0&amp;x=55&amp;y=69&amp;h=75&amp;bottom_edge=s&amp;double_door=0&amp;double_door=1&amp;thickness=3.0&amp;format=svg&amp;tabs=0.0&amp;qr_code=0&amp;debug=0&amp;labels=0&amp;labels=1&amp;reference=100.0&amp;inner_corners=loop&amp;burn=0.1&amp;language=fr&amp;render=2
Url short: http://boxes.hackerspace-bamberg.de/boxes.py/SideDoorHousing?x=55&amp;y=69&amp;h=75
SettingsUrl: http://boxes.hackerspace-bamberg.de/boxes.py/SideDoorHousing?FingerJoint_angle=90.0&amp;FingerJoint_style=rectangular&amp;FingerJoint_surroundingspaces=0.5&amp;FingerJoint_bottom_lip=0.0&amp;FingerJoint_edge_width=1.0&amp;FingerJoint_extra_length=0.0&amp;FingerJoint_finger=2.0&amp;FingerJoint_play=0.0&amp;FingerJoint_space=2.0&amp;FingerJoint_width=1.0&amp;Stackable_angle=60&amp;Stackable_bottom_stabilizers=0.0&amp;Stackable_height=2.0&amp;Stackable_holedistance=1.0&amp;Stackable_width=4.0&amp;x=55&amp;y=69&amp;h=75&amp;bottom_edge=s&amp;double_door=0&amp;double_door=1&amp;thickness=3.0&amp;format=svg&amp;tabs=0.0&amp;qr_code=0&amp;debug=0&amp;labels=0&amp;labels=1&amp;reference=100.0&amp;inner_corners=loop&amp;burn=0.1&amp;language=fr&amp;render=2
SettingsUrl short: http://boxes.hackerspace-bamberg.de/boxes.py/SideDoorHousing?x=55&amp;y=69&amp;h=75
</dc:description>
        <dc:format>image/svg+xml</dc:format>
        <dc:type
           rdf:resource="http://purl.org/dc/dcmitype/StillImage" />
      </cc:Work>
    </rdf:RDF>
  </metadata>
  <g
     transform="translate(278.99634,-137.75664)"
     style="fill:none;stroke:#ff0000;stroke-width:0.01;stroke-linecap:round;stroke-linejoin:round;stroke-miterlimit:4;stroke-dasharray:none;stroke-opacity:1"
     id="p-1">
    <path
       style="stroke:#ff0000;stroke-width:0.01;stroke-miterlimit:4;stroke-dasharray:none;stroke-opacity:1"
       id="path11"
       stroke-width="0.2"
       stroke="#000000"
       d="m 13.1,97.2 h 6.4 c 0.1,0 0,-0.1 0,0 v 2.9 c 0,0.055 0.045,0.1 0.1,0.1 h 6 c 0.055,0 0.1,-0.045 0.1,-0.1 v -2.9 c 0,-0.1 -0.1,0 0,0 h 5.8 c 0.1,0 0,-0.1 0,0 v 2.9 c 0,0.055 0.045,0.1 0.1,0.1 h 6 c 0.055,0 0.1,-0.045 0.1,-0.1 v -2.9 c 0,-0.1 -0.1,0 0,0 h 5.8 c 0.1,0 0,-0.1 0,0 v 2.9 c 0,0.055 0.045,0.1 0.1,0.1 h 6 c 0.055,0 0.1,-0.045 0.1,-0.1 v -2.9 c 0,-0.1 -0.1,0 0,0 h 5.8 c 0.1,0 0,-0.1 0,0 v 2.9 c 0,0.055 0.045,0.1 0.1,0.1 h 6 c 0.055,0 0.1,-0.045 0.1,-0.1 v -2.9 c 0,-0.1 -0.1,0 0,0 h 6.4 c 0.055,0 0.1,-0.045 0.1,-0.1 v -1.4 c 0,-0.1 -0.1,0 0,0 h 2.9 c 0.055,0 0.1,-0.045 0.1,-0.1 v -6 c 0,-0.055 -0.045,-0.1 -0.1,-0.1 h -2.9 c -0.1,0 0,0.1 0,0 v -5.8 c 0,-0.1 -0.1,0 0,0 h 2.9 c 0.055,0 0.1,-0.045 0.1,-0.1 v -6 c 0,-0.055 -0.045,-0.1 -0.1,-0.1 h -2.9 c -0.1,0 0,0.1 0,0 v -5.8 c 0,-0.1 -0.1,0 0,0 h 2.9 c 0.055,0 0.1,-0.045 0.1,-0.1 v -6 c 0,-0.055 -0.045,-0.1 -0.1,-0.1 h -2.9 c -0.1,0 0,0.1 0,0 v -5.8 c 0,-0.1 -0.1,0 0,0 h 2.9 c 0.055,0 0.1,-0.045 0.1,-0.1 v -6 c 0,-0.055 -0.045,-0.1 -0.1,-0.1 h -2.9 c -0.1,0 0,0.1 0,0 v -5.8 c 0,-0.1 -0.1,0 0,0 h 2.9 c 0.055,0 0.1,-0.045 0.1,-0.1 v -6 c 0,-0.055 -0.045,-0.1 -0.1,-0.1 h -2.9 c -0.1,0 0,0.1 0,0 v -5.8 c 0,-0.1 -0.1,0 0,0 h 2.9 c 0.055,0 0.1,-0.045 0.1,-0.1 v -6 c 0,-0.055 -0.045,-0.1 -0.1,-0.1 h -2.9 c -0.1,0 0,0.1 0,0 V 28.1 C 68.2,28.045 68.155,28 68.1,28 h -6.4 c -0.1,0 0,0.1 0,0 V 25.1 C 61.7,25.045 61.655,25 61.6,25 h -6 c -0.055,0 -0.1,0.045 -0.1,0.1 V 28 c 0,0.1 0.1,0 0,0 h -5.8 c -0.1,0 0,0.1 0,0 V 25.1 C 49.7,25.045 49.655,25 49.6,25 h -6 c -0.055,0 -0.1,0.045 -0.1,0.1 V 28 c 0,0.1 0.1,0 0,0 h -5.8 c -0.1,0 0,0.1 0,0 V 25.1 C 37.7,25.045 37.655,25 37.6,25 h -6 c -0.055,0 -0.1,0.045 -0.1,0.1 V 28 c 0,0.1 0.1,0 0,0 h -5.8 c -0.1,0 0,0.1 0,0 V 25.1 C 25.7,25.045 25.655,25 25.6,25 h -6 c -0.055,0 -0.1,0.045 -0.1,0.1 V 28 c 0,0.1 0.1,0 0,0 H 13.1 C 13.045,28 13,28.045 13,28.1 v 1.4 c 0,0.1 0.1,0 0,0 h -2.9 c -0.055,0 -0.1,0.045 -0.1,0.1 v 6 c 0,0.055 0.045,0.1 0.1,0.1 H 13 c 0.1,0 0,-0.1 0,0 v 5.8 c 0,0.1 0.1,0 0,0 h -2.9 c -0.055,0 -0.1,0.045 -0.1,0.1 v 6 c 0,0.055 0.045,0.1 0.1,0.1 H 13 c 0.1,0 0,-0.1 0,0 v 5.8 c 0,0.1 0.1,0 0,0 h -2.9 c -0.055,0 -0.1,0.045 -0.1,0.1 v 6 c 0,0.055 0.045,0.1 0.1,0.1 H 13 c 0.1,0 0,-0.1 0,0 v 5.8 c 0,0.1 0.1,0 0,0 h -2.9 c -0.055,0 -0.1,0.045 -0.1,0.1 v 6 c 0,0.055 0.045,0.1 0.1,0.1 H 13 c 0.1,0 0,-0.1 0,0 v 5.8 c 0,0.1 0.1,0 0,0 h -2.9 c -0.055,0 -0.1,0.045 -0.1,0.1 v 6 c 0,0.055 0.045,0.1 0.1,0.1 H 13 c 0.1,0 0,-0.1 0,0 v 5.8 c 0,0.1 0.1,0 0,0 h -2.9 c -0.055,0 -0.1,0.045 -0.1,0.1 v 6 c 0,0.055 0.045,0.1 0.1,0.1 H 13 c 0.1,0 0,-0.1 0,0 v 1.4 c 0,0.055 0.045,0.1 0.1,0.1 z" />
  </g>
  <g
     transform="rotate(180,211.44817,31.822237)"
     style="fill:none;stroke:#ff0000;stroke-width:0.01;stroke-linecap:round;stroke-linejoin:round;stroke-miterlimit:4;stroke-dasharray:none;stroke-opacity:1"
     id="p-2">
    <path
       style="stroke:#ff0000;stroke-width:0.01;stroke-miterlimit:4;stroke-dasharray:none;stroke-opacity:1"
       id="path14"
       stroke-width="0.2"
       stroke="#000000"
       d="m 75.8,100.2 h 55 3 c 0.055,0 0.1,-0.045 0.1,-0.1 v -3 -1.5 c 0,-0.055 -0.045,-0.1 -0.1,-0.1 h -2.9 c -0.1,0 0,0.1 0,0 v -5.8 c 0,-0.1 -0.1,0 0,0 h 2.9 c 0.055,0 0.1,-0.045 0.1,-0.1 v -6 c 0,-0.055 -0.045,-0.1 -0.1,-0.1 h -2.9 c -0.1,0 0,0.1 0,0 v -5.8 c 0,-0.1 -0.1,0 0,0 h 2.9 c 0.055,0 0.1,-0.045 0.1,-0.1 v -6 c 0,-0.055 -0.045,-0.1 -0.1,-0.1 h -2.9 c -0.1,0 0,0.1 0,0 v -5.8 c 0,-0.1 -0.1,0 0,0 h 2.9 c 0.055,0 0.1,-0.045 0.1,-0.1 v -6 c 0,-0.055 -0.045,-0.1 -0.1,-0.1 h -2.9 c -0.1,0 0,0.1 0,0 v -5.8 c 0,-0.1 -0.1,0 0,0 h 2.9 c 0.055,0 0.1,-0.045 0.1,-0.1 v -6 c 0,-0.055 -0.045,-0.1 -0.1,-0.1 h -2.9 c -0.1,0 0,0.1 0,0 v -5.8 c 0,-0.1 -0.1,0 0,0 h 2.9 c 0.055,0 0.1,-0.045 0.1,-0.1 v -6 c 0,-0.055 -0.045,-0.1 -0.1,-0.1 h -2.9 c -0.1,0 0,0.1 0,0 v -5.8 c 0,-0.1 -0.1,0 0,0 h 2.9 c 0.055,0 0.1,-0.045 0.1,-0.1 v -1.5 -3 c 0,-0.055 -0.045,-0.1 -0.1,-0.1 h -3 -55 -3 c -0.055,0 -0.1,0.045 -0.1,0.1 v 3 1.5 c 0,0.055 0.045,0.1 0.1,0.1 h 2.9 c 0.1,0 0,-0.1 0,0 v 5.8 c 0,0.1 0.1,0 0,0 h -2.9 c -0.055,0 -0.1,0.045 -0.1,0.1 v 6 c 0,0.055 0.045,0.1 0.1,0.1 h 2.9 c 0.1,0 0,-0.1 0,0 v 5.8 c 0,0.1 0.1,0 0,0 h -2.9 c -0.055,0 -0.1,0.045 -0.1,0.1 v 6 c 0,0.055 0.045,0.1 0.1,0.1 h 2.9 c 0.1,0 0,-0.1 0,0 v 5.8 c 0,0.1 0.1,0 0,0 h -2.9 c -0.055,0 -0.1,0.045 -0.1,0.1 v 6 c 0,0.055 0.045,0.1 0.1,0.1 h 2.9 c 0.1,0 0,-0.1 0,0 v 5.8 c 0,0.1 0.1,0 0,0 h -2.9 c -0.055,0 -0.1,0.045 -0.1,0.1 v 6 c 0,0.055 0.045,0.1 0.1,0.1 h 2.9 c 0.1,0 0,-0.1 0,0 v 5.8 c 0,0.1 0.1,0 0,0 h -2.9 c -0.055,0 -0.1,0.045 -0.1,0.1 v 6 c 0,0.055 0.045,0.1 0.1,0.1 h 2.9 c 0.1,0 0,-0.1 0,0 v 5.8 c 0,0.1 0.1,0 0,0 h -2.9 c -0.055,0 -0.1,0.045 -0.1,0.1 v 1.5 3 c 0,0.055 0.045,0.1 0.1,0.1 z" />
  </g>
  <g
     transform="rotate(90,274.05,24.053656)"
     style="fill:none;stroke:#ff0000;stroke-width:0.01;stroke-linecap:round;stroke-linejoin:round;stroke-miterlimit:4;stroke-dasharray:none;stroke-opacity:1"
     id="p-3">
    <path
       style="stroke:#ff0000;stroke-width:0.01;stroke-miterlimit:4;stroke-dasharray:none;stroke-opacity:1"
       id="path17"
       stroke-width="0.20"
       stroke="rgb(0,0,255)"
       d="m 143,91.1 h -2.9 c -0.1,0 0,0.1 0,0 v -2.8 c 0,-0.1 -0.1,0 0,0 h 5.8 c 0.1,0 0,-0.1 0,0 v 2.8 c 0,0.1 0.1,0 0,0 z" />
    <path
       style="stroke:#ff0000;stroke-width:0.01;stroke-miterlimit:4;stroke-dasharray:none;stroke-opacity:1"
       id="path19"
       stroke-width="0.20"
       stroke="rgb(0,0,255)"
       d="m 155,91.1 h -2.9 c -0.1,0 0,0.1 0,0 v -2.8 c 0,-0.1 -0.1,0 0,0 h 5.8 c 0.1,0 0,-0.1 0,0 v 2.8 c 0,0.1 0.1,0 0,0 z" />
    <path
       style="stroke:#ff0000;stroke-width:0.01;stroke-miterlimit:4;stroke-dasharray:none;stroke-opacity:1"
       id="path21"
       stroke-width="0.20"
       stroke="rgb(0,0,255)"
       d="m 167,91.1 h -2.9 c -0.1,0 0,0.1 0,0 v -2.8 c 0,-0.1 -0.1,0 0,0 h 5.8 c 0.1,0 0,-0.1 0,0 v 2.8 c 0,0.1 0.1,0 0,0 z" />
    <path
       style="stroke:#ff0000;stroke-width:0.01;stroke-miterlimit:4;stroke-dasharray:none;stroke-opacity:1"
       id="path23"
       stroke-width="0.20"
       stroke="rgb(0,0,255)"
       d="m 179,91.1 h -2.9 c -0.1,0 0,0.1 0,0 v -2.8 c 0,-0.1 -0.1,0 0,0 h 5.8 c 0.1,0 0,-0.1 0,0 v 2.8 c 0,0.1 0.1,0 0,0 z" />
    <path
       style="stroke:#ff0000;stroke-width:0.01;stroke-miterlimit:4;stroke-dasharray:none;stroke-opacity:1"
       id="path25"
       stroke-width="0.20"
       stroke="rgb(0,0,255)"
       d="m 191,91.1 h -2.9 c -0.1,0 0,0.1 0,0 v -2.8 c 0,-0.1 -0.1,0 0,0 h 5.8 c 0.1,0 0,-0.1 0,0 v 2.8 c 0,0.1 0.1,0 0,0 z" />
    <path
       style="stroke:#ff0000;stroke-width:0.01;stroke-miterlimit:4;stroke-dasharray:none;stroke-opacity:1"
       id="path27"
       stroke-width="0.20"
       stroke="rgb(0,0,255)"
       d="m 203,91.1 h -2.9 c -0.1,0 0,0.1 0,0 v -2.8 c 0,-0.1 -0.1,0 0,0 h 5.8 c 0.1,0 0,-0.1 0,0 v 2.8 c 0,0.1 0.1,0 0,0 z" />
    <path
       style="stroke:#ff0000;stroke-width:0.01;stroke-miterlimit:4;stroke-dasharray:none;stroke-opacity:1"
       id="path29"
       stroke-width="0.20"
       stroke="rgb(0,0,0)"
       d="m 138.5,100.2 h 12 c 1.071,0 2.123,-0.282 3.05,-0.817 0.927,-0.536 1.697,-1.306 2.233,-2.233 0.518,-0.897 1.262,-1.642 2.159,-2.16 0.897,-0.517 1.915,-0.79 2.95,-0.79 h 24.216 c 1.035,0 2.053,0.273 2.95,0.79 0.897,0.518 1.641,1.263 2.159,2.16 0.536,0.927 1.306,1.697 2.233,2.233 0.927,0.535 1.979,0.817 3.05,0.817 h 12 c 0.055,0 0.1,-0.045 0.1,-0.1 v -4.4 c 0,-0.1 -0.1,0 0,0 h 2.9 c 0.055,0 0.1,-0.045 0.1,-0.1 v -6 c 0,-0.055 -0.045,-0.1 -0.1,-0.1 h -2.9 c -0.1,0 0,0.1 0,0 v -4.4 -72 c 0,-0.055 -0.045,-0.1 -0.1,-0.1 h -1.4 c -0.1,0 0,0.1 0,0 v -2.9 c 0,-0.055 -0.045,-0.1 -0.1,-0.1 h -6 c -0.055,0 -0.1,0.045 -0.1,0.1 V 13 c 0,0.1 0.1,0 0,0 h -5.8 c -0.1,0 0,0.1 0,0 v -2.9 c 0,-0.055 -0.045,-0.1 -0.1,-0.1 h -6 c -0.055,0 -0.1,0.045 -0.1,0.1 V 13 c 0,0.1 0.1,0 0,0 h -5.8 c -0.1,0 0,0.1 0,0 v -2.9 c 0,-0.055 -0.045,-0.1 -0.1,-0.1 h -6 c -0.055,0 -0.1,0.045 -0.1,0.1 V 13 c 0,0.1 0.1,0 0,0 h -5.8 c -0.1,0 0,0.1 0,0 v -2.9 c 0,-0.055 -0.045,-0.1 -0.1,-0.1 h -6 c -0.055,0 -0.1,0.045 -0.1,0.1 V 13 c 0,0.1 0.1,0 0,0 h -5.8 c -0.1,0 0,0.1 0,0 v -2.9 c 0,-0.055 -0.045,-0.1 -0.1,-0.1 h -6 c -0.055,0 -0.1,0.045 -0.1,0.1 V 13 c 0,0.1 0.1,0 0,0 h -5.8 c -0.1,0 0,0.1 0,0 v -2.9 c 0,-0.055 -0.045,-0.1 -0.1,-0.1 h -6 c -0.055,0 -0.1,0.045 -0.1,0.1 V 13 c 0,0.1 0.1,0 0,0 h -1.4 c -0.055,0 -0.1,0.045 -0.1,0.1 v 72 4.4 c 0,0.1 0.1,0 0,0 h -2.9 c -0.055,0 -0.1,0.045 -0.1,0.1 v 6 c 0,0.055 0.045,0.1 0.1,0.1 h 2.9 c 0.1,0 0,-0.1 0,0 v 4.4 c 0,0.055 0.045,0.1 0.1,0.1 z" />
    <path
       style="stroke:#ff0000;stroke-width:0.01;stroke-miterlimit:4;stroke-dasharray:none;stroke-opacity:1"
       id="path31"
       stroke-width="0.20"
       stroke="rgb(0,0,255)"
       d="m 202.85,20.55 h 1.55 c 0.1,0 0,-0.1 0,0 v 3.1 c 0,0.1 0.1,0 0,0 h -3.1 c -0.1,0 0,0.1 0,0 v -3.1 c 0,-0.1 -0.1,0 0,0 z" />
    <path
       style="stroke:#ff0000;stroke-width:0.01;stroke-miterlimit:4;stroke-dasharray:none;stroke-opacity:1"
       id="path33"
       stroke-width="0.20"
       stroke="rgb(0,0,255)"
       d="m 143.15,20.55 h 1.55 c 0.1,0 0,-0.1 0,0 v 3.1 c 0,0.1 0.1,0 0,0 h -3.1 c -0.1,0 0,0.1 0,0 v -3.1 c 0,-0.1 -0.1,0 0,0 z" />
  </g>
  <g
     transform="rotate(90,274.05,24.053656)"
     style="fill:none;stroke:#ff0000;stroke-width:0.01;stroke-linecap:round;stroke-linejoin:round;stroke-miterlimit:4;stroke-dasharray:none;stroke-opacity:1"
     id="p-4">
    <path
       style="stroke:#ff0000;stroke-width:0.01;stroke-miterlimit:4;stroke-dasharray:none;stroke-opacity:1"
       id="path36"
       stroke-width="0.20"
       stroke="rgb(0,0,255)"
       d="m 279.7,91.1 h 2.9 c 0.1,0 0,0.1 0,0 v -2.8 c 0,-0.1 0.1,0 0,0 h -5.8 c -0.1,0 0,-0.1 0,0 v 2.8 c 0,0.1 -0.1,0 0,0 z" />
    <path
       style="stroke:#ff0000;stroke-width:0.01;stroke-miterlimit:4;stroke-dasharray:none;stroke-opacity:1"
       id="path38"
       stroke-width="0.20"
       stroke="rgb(0,0,255)"
       d="m 267.7,91.1 h 2.9 c 0.1,0 0,0.1 0,0 v -2.8 c 0,-0.1 0.1,0 0,0 h -5.8 c -0.1,0 0,-0.1 0,0 v 2.8 c 0,0.1 -0.1,0 0,0 z" />
    <path
       style="stroke:#ff0000;stroke-width:0.01;stroke-miterlimit:4;stroke-dasharray:none;stroke-opacity:1"
       id="path40"
       stroke-width="0.20"
       stroke="rgb(0,0,255)"
       d="m 255.7,91.1 h 2.9 c 0.1,0 0,0.1 0,0 v -2.8 c 0,-0.1 0.1,0 0,0 h -5.8 c -0.1,0 0,-0.1 0,0 v 2.8 c 0,0.1 -0.1,0 0,0 z" />
    <path
       style="stroke:#ff0000;stroke-width:0.01;stroke-miterlimit:4;stroke-dasharray:none;stroke-opacity:1"
       id="path42"
       stroke-width="0.20"
       stroke="rgb(0,0,255)"
       d="m 243.7,91.1 h 2.9 c 0.1,0 0,0.1 0,0 v -2.8 c 0,-0.1 0.1,0 0,0 h -5.8 c -0.1,0 0,-0.1 0,0 v 2.8 c 0,0.1 -0.1,0 0,0 z" />
    <path
       style="stroke:#ff0000;stroke-width:0.01;stroke-miterlimit:4;stroke-dasharray:none;stroke-opacity:1"
       id="path44"
       stroke-width="0.20"
       stroke="rgb(0,0,255)"
       d="m 231.7,91.1 h 2.9 c 0.1,0 0,0.1 0,0 v -2.8 c 0,-0.1 0.1,0 0,0 h -5.8 c -0.1,0 0,-0.1 0,0 v 2.8 c 0,0.1 -0.1,0 0,0 z" />
    <path
       style="stroke:#ff0000;stroke-width:0.01;stroke-miterlimit:4;stroke-dasharray:none;stroke-opacity:1"
       id="path46"
       stroke-width="0.20"
       stroke="rgb(0,0,255)"
       d="m 219.7,91.1 h 2.9 c 0.1,0 0,0.1 0,0 v -2.8 c 0,-0.1 0.1,0 0,0 h -5.8 c -0.1,0 0,-0.1 0,0 v 2.8 c 0,0.1 -0.1,0 0,0 z" />
    <path
       style="stroke:#ff0000;stroke-width:0.01;stroke-miterlimit:4;stroke-dasharray:none;stroke-opacity:1"
       id="path48"
       stroke-width="0.20"
       stroke="rgb(0,0,0)"
       d="m 284.2,100.2 h -12 c -1.071,0 -2.123,-0.282 -3.05,-0.817 -0.927,-0.536 -1.697,-1.306 -2.233,-2.233 -0.518,-0.897 -1.262,-1.642 -2.159,-2.16 -0.897,-0.517 -1.915,-0.79 -2.95,-0.79 h -24.216 c -1.035,0 -2.053,0.273 -2.95,0.79 -0.897,0.518 -1.641,1.263 -2.159,2.16 -0.536,0.927 -1.306,1.697 -2.233,2.233 -0.927,0.535 -1.979,0.817 -3.05,0.817 h -12 c -0.055,0 -0.1,-0.045 -0.1,-0.1 v -4.4 c 0,-0.1 0.1,0 0,0 h -2.9 c -0.055,0 -0.1,-0.045 -0.1,-0.1 v -6 c 0,-0.055 0.045,-0.1 0.1,-0.1 h 2.9 c 0.1,0 0,0.1 0,0 v -4.4 -72 c 0,-0.055 0.045,-0.1 0.1,-0.1 h 1.4 c 0.1,0 0,0.1 0,0 v -2.9 c 0,-0.055 0.045,-0.1 0.1,-0.1 h 6 c 0.055,0 0.1,0.045 0.1,0.1 V 13 c 0,0.1 -0.1,0 0,0 h 5.8 c 0.1,0 0,0.1 0,0 v -2.9 c 0,-0.055 0.045,-0.1 0.1,-0.1 h 6 c 0.055,0 0.1,0.045 0.1,0.1 V 13 c 0,0.1 -0.1,0 0,0 h 5.8 c 0.1,0 0,0.1 0,0 v -2.9 c 0,-0.055 0.045,-0.1 0.1,-0.1 h 6 c 0.055,0 0.1,0.045 0.1,0.1 V 13 c 0,0.1 -0.1,0 0,0 h 5.8 c 0.1,0 0,0.1 0,0 v -2.9 c 0,-0.055 0.045,-0.1 0.1,-0.1 h 6 c 0.055,0 0.1,0.045 0.1,0.1 V 13 c 0,0.1 -0.1,0 0,0 h 5.8 c 0.1,0 0,0.1 0,0 v -2.9 c 0,-0.055 0.045,-0.1 0.1,-0.1 h 6 c 0.055,0 0.1,0.045 0.1,0.1 V 13 c 0,0.1 -0.1,0 0,0 h 5.8 c 0.1,0 0,0.1 0,0 v -2.9 c 0,-0.055 0.045,-0.1 0.1,-0.1 h 6 c 0.055,0 0.1,0.045 0.1,0.1 V 13 c 0,0.1 -0.1,0 0,0 h 1.4 c 0.055,0 0.1,0.045 0.1,0.1 v 72 4.4 c 0,0.1 -0.1,0 0,0 h 2.9 c 0.055,0 0.1,0.045 0.1,0.1 v 6 c 0,0.055 -0.045,0.1 -0.1,0.1 h -2.9 c -0.1,0 0,-0.1 0,0 v 4.4 c 0,0.055 -0.045,0.1 -0.1,0.1 z" />
    <path
       style="stroke:#ff0000;stroke-width:0.01;stroke-miterlimit:4;stroke-dasharray:none;stroke-opacity:1"
       id="path50"
       stroke-width="0.20"
       stroke="rgb(0,0,255)"
       d="m 219.85,20.55 h -1.55 c -0.1,0 0,-0.1 0,0 v 3.1 c 0,0.1 -0.1,0 0,0 h 3.1 c 0.1,0 0,0.1 0,0 v -3.1 c 0,-0.1 0.1,0 0,0 z" />
    <path
       style="stroke:#ff0000;stroke-width:0.01;stroke-miterlimit:4;stroke-dasharray:none;stroke-opacity:1"
       id="path52"
       stroke-width="0.20"
       stroke="rgb(0,0,255)"
       d="M 279.55,20.55 H 278 c -0.1,0 0,-0.1 0,0 v 3.1 c 0,0.1 -0.1,0 0,0 h 3.1 c 0.1,0 0,0.1 0,0 v -3.1 c 0,-0.1 0.1,0 0,0 z" />
  </g>
  <g
     transform="rotate(90,274.05,24.053656)"
     style="fill:none;stroke:#ff0000;stroke-width:0.01;stroke-linecap:round;stroke-linejoin:round;stroke-miterlimit:4;stroke-dasharray:none;stroke-opacity:1"
     id="p-5">
    <path
       style="stroke:#ff0000;stroke-width:0.01;stroke-miterlimit:4;stroke-dasharray:none;stroke-opacity:1"
       id="path55"
       stroke-width="0.20"
       stroke="rgb(0,0,255)"
       d="m 301.4,91.1 h -2.9 c -0.1,0 0,0.1 0,0 v -2.8 c 0,-0.1 -0.1,0 0,0 h 5.8 c 0.1,0 0,-0.1 0,0 v 2.8 c 0,0.1 0.1,0 0,0 z" />
    <path
       style="stroke:#ff0000;stroke-width:0.01;stroke-miterlimit:4;stroke-dasharray:none;stroke-opacity:1"
       id="path57"
       stroke-width="0.20"
       stroke="rgb(0,0,255)"
       d="m 313.4,91.1 h -2.9 c -0.1,0 0,0.1 0,0 v -2.8 c 0,-0.1 -0.1,0 0,0 h 5.8 c 0.1,0 0,-0.1 0,0 v 2.8 c 0,0.1 0.1,0 0,0 z" />
    <path
       style="stroke:#ff0000;stroke-width:0.01;stroke-miterlimit:4;stroke-dasharray:none;stroke-opacity:1"
       id="path59"
       stroke-width="0.20"
       stroke="rgb(0,0,255)"
       d="m 325.4,91.1 h -2.9 c -0.1,0 0,0.1 0,0 v -2.8 c 0,-0.1 -0.1,0 0,0 h 5.8 c 0.1,0 0,-0.1 0,0 v 2.8 c 0,0.1 0.1,0 0,0 z" />
    <path
       style="stroke:#ff0000;stroke-width:0.01;stroke-miterlimit:4;stroke-dasharray:none;stroke-opacity:1"
       id="path61"
       stroke-width="0.20"
       stroke="rgb(0,0,255)"
       d="m 337.4,91.1 h -2.9 c -0.1,0 0,0.1 0,0 v -2.8 c 0,-0.1 -0.1,0 0,0 h 5.8 c 0.1,0 0,-0.1 0,0 v 2.8 c 0,0.1 0.1,0 0,0 z" />
    <path
       style="stroke:#ff0000;stroke-width:0.01;stroke-miterlimit:4;stroke-dasharray:none;stroke-opacity:1"
       id="path63"
       stroke-width="0.20"
       stroke="rgb(0,0,0)"
       d="m 291.9,100.2 h 12 c 1.071,0 2.123,-0.282 3.05,-0.817 0.927,-0.536 1.697,-1.306 2.233,-2.233 0.518,-0.897 1.262,-1.642 2.159,-2.16 0.897,-0.517 1.915,-0.79 2.95,-0.79 h 10.216 c 1.035,0 2.053,0.273 2.95,0.79 0.897,0.518 1.641,1.263 2.159,2.16 0.536,0.927 1.306,1.697 2.233,2.233 0.927,0.535 1.979,0.817 3.05,0.817 h 12 3 c 0.055,0 0.1,-0.045 0.1,-0.1 v -4.5 c 0,-0.055 -0.045,-0.1 -0.1,-0.1 H 347 c -0.1,0 0,0.1 0,0 v -5.8 c 0,-0.1 -0.1,0 0,0 h 2.9 c 0.055,0 0.1,-0.045 0.1,-0.1 v -4.5 c 0,-0.055 -0.045,-0.1 -0.1,-0.1 h -3 -55 -3 c -0.055,0 -0.1,0.045 -0.1,0.1 v 4.5 c 0,0.055 0.045,0.1 0.1,0.1 h 2.9 c 0.1,0 0,-0.1 0,0 v 5.8 c 0,0.1 0.1,0 0,0 h -2.9 c -0.055,0 -0.1,0.045 -0.1,0.1 v 4.5 c 0,0.055 0.045,0.1 0.1,0.1 z" />
  </g>
  <g
     transform="rotate(90,274.05,24.053656)"
     style="fill:none;stroke:#ff0000;stroke-width:0.01;stroke-linecap:round;stroke-linejoin:round;stroke-miterlimit:4;stroke-dasharray:none;stroke-opacity:1"
     id="p-6">
    <path
       style="stroke:#ff0000;stroke-width:0.01;stroke-miterlimit:4;stroke-dasharray:none;stroke-opacity:1"
       id="path66"
       stroke-width="0.20"
       stroke="rgb(0,0,255)"
       d="m 294.8,74.475 v 2.9 c 0,0.1 0.1,0 0,0 H 292 c -0.1,0 0,0.1 0,0 v -5.8 c 0,-0.1 -0.1,0 0,0 h 2.8 c 0.1,0 0,-0.1 0,0 z" />
    <path
       style="stroke:#ff0000;stroke-width:0.01;stroke-miterlimit:4;stroke-dasharray:none;stroke-opacity:1"
       id="path68"
       stroke-width="0.20"
       stroke="rgb(0,0,255)"
       d="m 294.8,62.475 v 2.9 c 0,0.1 0.1,0 0,0 H 292 c -0.1,0 0,0.1 0,0 v -5.8 c 0,-0.1 -0.1,0 0,0 h 2.8 c 0.1,0 0,-0.1 0,0 z" />
    <path
       style="stroke:#ff0000;stroke-width:0.01;stroke-miterlimit:4;stroke-dasharray:none;stroke-opacity:1"
       id="path70"
       stroke-width="0.20"
       stroke="rgb(0,0,255)"
       d="m 294.8,50.475 v 2.9 c 0,0.1 0.1,0 0,0 H 292 c -0.1,0 0,0.1 0,0 v -5.8 c 0,-0.1 -0.1,0 0,0 h 2.8 c 0.1,0 0,-0.1 0,0 z" />
    <path
       style="stroke:#ff0000;stroke-width:0.01;stroke-miterlimit:4;stroke-dasharray:none;stroke-opacity:1"
       id="path72"
       stroke-width="0.20"
       stroke="rgb(0,0,255)"
       d="m 294.8,38.475 v 2.9 c 0,0.1 0.1,0 0,0 H 292 c -0.1,0 0,0.1 0,0 v -5.8 c 0,-0.1 -0.1,0 0,0 h 2.8 c 0.1,0 0,-0.1 0,0 z" />
    <path
       style="stroke:#ff0000;stroke-width:0.01;stroke-miterlimit:4;stroke-dasharray:none;stroke-opacity:1"
       id="path74"
       stroke-width="0.20"
       stroke="rgb(0,0,0)"
       d="m 291.9,83.5 h 55 3 c 0.055,0 0.1,-0.045 0.1,-0.1 V 11.7 c 0,-0.055 -0.045,-0.1 -0.1,-0.1 h -3 -55 -3 c -0.055,0 -0.1,0.045 -0.1,0.1 v 71.7 c 0,0.055 0.045,0.1 0.1,0.1 z" />
    <path
       style="stroke:#ff0000;stroke-width:0.01;stroke-miterlimit:4;stroke-dasharray:none;stroke-opacity:1"
       id="path76"
       stroke-width="0.20"
       stroke="rgb(0,0,255)"
       d="m 340.9,21 v 4.4 c 0,0.1 0.1,0 0,0 h -2.8 c -0.1,0 0,0.1 0,0 v -2.75 c 0,-0.055 -0.045,-0.1 -0.1,-0.1 h -6 c -0.055,0 -0.1,0.045 -0.1,0.1 v 2.75 c 0,0.1 0.1,0 0,0 h -2.8 c -0.1,0 0,0.1 0,0 v -8.8 c 0,-0.1 -0.1,0 0,0 h 2.8 c 0.1,0 0,-0.1 0,0 v 2.75 c 0,0.055 0.045,0.1 0.1,0.1 h 6 c 0.055,0 0.1,-0.045 0.1,-0.1 V 16.6 c 0,-0.1 -0.1,0 0,0 h 2.8 c 0.1,0 0,-0.1 0,0 z" />
    <path
       style="stroke:#ff0000;stroke-width:0.01;stroke-miterlimit:4;stroke-dasharray:none;stroke-opacity:1"
       id="path78"
       stroke-width="0.20"
       stroke="rgb(0,0,255)"
       d="m 344,38.775 v -2.9 c 0,-0.1 -0.1,0 0,0 h 2.8 c 0.1,0 0,-0.1 0,0 v 5.8 c 0,0.1 0.1,0 0,0 H 344 c -0.1,0 0,0.1 0,0 z" />
    <path
       style="stroke:#ff0000;stroke-width:0.01;stroke-miterlimit:4;stroke-dasharray:none;stroke-opacity:1"
       id="path80"
       stroke-width="0.20"
       stroke="rgb(0,0,255)"
       d="m 344,50.775 v -2.9 c 0,-0.1 -0.1,0 0,0 h 2.8 c 0.1,0 0,-0.1 0,0 v 5.8 c 0,0.1 0.1,0 0,0 H 344 c -0.1,0 0,0.1 0,0 z" />
    <path
       style="stroke:#ff0000;stroke-width:0.01;stroke-miterlimit:4;stroke-dasharray:none;stroke-opacity:1"
       id="path82"
       stroke-width="0.20"
       stroke="rgb(0,0,255)"
       d="m 344,62.775 v -2.9 c 0,-0.1 -0.1,0 0,0 h 2.8 c 0.1,0 0,-0.1 0,0 v 5.8 c 0,0.1 0.1,0 0,0 H 344 c -0.1,0 0,0.1 0,0 z" />
    <path
       style="stroke:#ff0000;stroke-width:0.01;stroke-miterlimit:4;stroke-dasharray:none;stroke-opacity:1"
       id="path84"
       stroke-width="0.20"
       stroke="rgb(0,0,255)"
       d="m 344,74.775 v -2.9 c 0,-0.1 -0.1,0 0,0 h 2.8 c 0.1,0 0,-0.1 0,0 v 5.8 c 0,0.1 0.1,0 0,0 H 344 c -0.1,0 0,0.1 0,0 z" />
    <path
       style="stroke:#ff0000;stroke-width:0.01;stroke-miterlimit:4;stroke-dasharray:none;stroke-opacity:1"
       id="path86"
       stroke-width="0.20"
       stroke="rgb(0,0,255)"
       d="m 297.9,20.7 v -4.4 c 0,-0.1 -0.1,0 0,0 h 2.8 c 0.1,0 0,-0.1 0,0 v 2.75 c 0,0.055 0.045,0.1 0.1,0.1 h 6 c 0.055,0 0.1,-0.045 0.1,-0.1 V 16.3 c 0,-0.1 -0.1,0 0,0 h 2.8 c 0.1,0 0,-0.1 0,0 v 8.8 c 0,0.1 0.1,0 0,0 h -2.8 c -0.1,0 0,0.1 0,0 v -2.75 c 0,-0.055 -0.045,-0.1 -0.1,-0.1 h -6 c -0.055,0 -0.1,0.045 -0.1,0.1 v 2.75 c 0,0.1 0.1,0 0,0 h -2.8 c -0.1,0 0,0.1 0,0 z" />
  </g>
  <g
     transform="rotate(90,274.05,24.053656)"
     style="fill:none;stroke:#ff0000;stroke-width:0.01;stroke-linecap:round;stroke-linejoin:round;stroke-miterlimit:4;stroke-dasharray:none;stroke-opacity:1"
     id="p-7">
    <path
       style="stroke:#ff0000;stroke-width:0.01;stroke-miterlimit:4;stroke-dasharray:none;stroke-opacity:1"
       id="path89"
       stroke-width="0.20"
       stroke="rgb(0,0,255)"
       d="m 364.1,91.1 h -2.9 c -0.1,0 0,0.1 0,0 v -2.8 c 0,-0.1 -0.1,0 0,0 h 5.8 c 0.1,0 0,-0.1 0,0 v 2.8 c 0,0.1 0.1,0 0,0 z" />
    <path
       style="stroke:#ff0000;stroke-width:0.01;stroke-miterlimit:4;stroke-dasharray:none;stroke-opacity:1"
       id="path91"
       stroke-width="0.20"
       stroke="rgb(0,0,255)"
       d="m 376.1,91.1 h -2.9 c -0.1,0 0,0.1 0,0 v -2.8 c 0,-0.1 -0.1,0 0,0 h 5.8 c 0.1,0 0,-0.1 0,0 v 2.8 c 0,0.1 0.1,0 0,0 z" />
    <path
       style="stroke:#ff0000;stroke-width:0.01;stroke-miterlimit:4;stroke-dasharray:none;stroke-opacity:1"
       id="path93"
       stroke-width="0.20"
       stroke="rgb(0,0,255)"
       d="m 388.1,91.1 h -2.9 c -0.1,0 0,0.1 0,0 v -2.8 c 0,-0.1 -0.1,0 0,0 h 5.8 c 0.1,0 0,-0.1 0,0 v 2.8 c 0,0.1 0.1,0 0,0 z" />
    <path
       style="stroke:#ff0000;stroke-width:0.01;stroke-miterlimit:4;stroke-dasharray:none;stroke-opacity:1"
       id="path95"
       stroke-width="0.20"
       stroke="rgb(0,0,255)"
       d="m 400.1,91.1 h -2.9 c -0.1,0 0,0.1 0,0 v -2.8 c 0,-0.1 -0.1,0 0,0 h 5.8 c 0.1,0 0,-0.1 0,0 v 2.8 c 0,0.1 0.1,0 0,0 z" />
    <path
       style="stroke:#ff0000;stroke-width:0.01;stroke-miterlimit:4;stroke-dasharray:none;stroke-opacity:1"
       id="path97"
       stroke-width="0.20"
       stroke="rgb(0,0,0)"
       d="m 354.6,100.2 h 12 c 1.071,0 2.123,-0.282 3.05,-0.817 0.927,-0.536 1.697,-1.306 2.233,-2.233 0.518,-0.897 1.262,-1.642 2.159,-2.16 0.897,-0.517 1.915,-0.79 2.95,-0.79 h 10.216 c 1.035,0 2.053,0.273 2.95,0.79 0.897,0.518 1.641,1.263 2.159,2.16 0.536,0.927 1.306,1.697 2.233,2.233 0.927,0.535 1.979,0.817 3.05,0.817 h 12 3 c 0.055,0 0.1,-0.045 0.1,-0.1 v -4.5 c 0,-0.055 -0.045,-0.1 -0.1,-0.1 h -2.9 c -0.1,0 0,0.1 0,0 v -5.8 c 0,-0.1 -0.1,0 0,0 h 2.9 c 0.055,0 0.1,-0.045 0.1,-0.1 v -4.5 c 0,-0.055 -0.045,-0.1 -0.1,-0.1 h -3 -55 -3 c -0.055,0 -0.1,0.045 -0.1,0.1 v 4.5 c 0,0.055 0.045,0.1 0.1,0.1 h 2.9 c 0.1,0 0,-0.1 0,0 v 5.8 c 0,0.1 0.1,0 0,0 h -2.9 c -0.055,0 -0.1,0.045 -0.1,0.1 v 4.5 c 0,0.055 0.045,0.1 0.1,0.1 z" />
  </g>
  <g
     transform="rotate(90,274.05,24.053656)"
     style="fill:none;stroke:#ff0000;stroke-width:0.01;stroke-linecap:round;stroke-linejoin:round;stroke-miterlimit:4;stroke-dasharray:none;stroke-opacity:1"
     id="p-8">
    <path
       style="stroke:#ff0000;stroke-width:0.01;stroke-miterlimit:4;stroke-dasharray:none;stroke-opacity:1"
       id="path100"
       stroke-width="0.20"
       stroke="rgb(0,0,255)"
       d="m 357.5,74.475 v 2.9 c 0,0.1 0.1,0 0,0 h -2.8 c -0.1,0 0,0.1 0,0 v -5.8 c 0,-0.1 -0.1,0 0,0 h 2.8 c 0.1,0 0,-0.1 0,0 z" />
    <path
       style="stroke:#ff0000;stroke-width:0.01;stroke-miterlimit:4;stroke-dasharray:none;stroke-opacity:1"
       id="path102"
       stroke-width="0.20"
       stroke="rgb(0,0,255)"
       d="m 357.5,62.475 v 2.9 c 0,0.1 0.1,0 0,0 h -2.8 c -0.1,0 0,0.1 0,0 v -5.8 c 0,-0.1 -0.1,0 0,0 h 2.8 c 0.1,0 0,-0.1 0,0 z" />
    <path
       style="stroke:#ff0000;stroke-width:0.01;stroke-miterlimit:4;stroke-dasharray:none;stroke-opacity:1"
       id="path104"
       stroke-width="0.20"
       stroke="rgb(0,0,255)"
       d="m 357.5,50.475 v 2.9 c 0,0.1 0.1,0 0,0 h -2.8 c -0.1,0 0,0.1 0,0 v -5.8 c 0,-0.1 -0.1,0 0,0 h 2.8 c 0.1,0 0,-0.1 0,0 z" />
    <path
       style="stroke:#ff0000;stroke-width:0.01;stroke-miterlimit:4;stroke-dasharray:none;stroke-opacity:1"
       id="path106"
       stroke-width="0.20"
       stroke="rgb(0,0,255)"
       d="m 357.5,38.475 v 2.9 c 0,0.1 0.1,0 0,0 h -2.8 c -0.1,0 0,0.1 0,0 v -5.8 c 0,-0.1 -0.1,0 0,0 h 2.8 c 0.1,0 0,-0.1 0,0 z" />
    <path
       style="stroke:#ff0000;stroke-width:0.01;stroke-miterlimit:4;stroke-dasharray:none;stroke-opacity:1"
       id="path108"
       stroke-width="0.20"
       stroke="rgb(0,0,0)"
       d="m 354.6,83.5 h 55 3 c 0.055,0 0.1,-0.045 0.1,-0.1 V 11.7 c 0,-0.055 -0.045,-0.1 -0.1,-0.1 h -3 -55 -3 c -0.055,0 -0.1,0.045 -0.1,0.1 v 71.7 c 0,0.055 0.045,0.1 0.1,0.1 z" />
    <path
       style="stroke:#ff0000;stroke-width:0.01;stroke-miterlimit:4;stroke-dasharray:none;stroke-opacity:1"
       id="path110"
       stroke-width="0.20"
       stroke="rgb(0,0,255)"
       d="m 403.6,21 v 4.4 c 0,0.1 0.1,0 0,0 h -2.8 c -0.1,0 0,0.1 0,0 v -2.75 c 0,-0.055 -0.045,-0.1 -0.1,-0.1 h -6 c -0.055,0 -0.1,0.045 -0.1,0.1 v 2.75 c 0,0.1 0.1,0 0,0 h -2.8 c -0.1,0 0,0.1 0,0 v -8.8 c 0,-0.1 -0.1,0 0,0 h 2.8 c 0.1,0 0,-0.1 0,0 v 2.75 c 0,0.055 0.045,0.1 0.1,0.1 h 6 c 0.055,0 0.1,-0.045 0.1,-0.1 V 16.6 c 0,-0.1 -0.1,0 0,0 h 2.8 c 0.1,0 0,-0.1 0,0 z" />
    <path
       style="stroke:#ff0000;stroke-width:0.01;stroke-miterlimit:4;stroke-dasharray:none;stroke-opacity:1"
       id="path112"
       stroke-width="0.20"
       stroke="rgb(0,0,255)"
       d="m 406.7,38.775 v -2.9 c 0,-0.1 -0.1,0 0,0 h 2.8 c 0.1,0 0,-0.1 0,0 v 5.8 c 0,0.1 0.1,0 0,0 h -2.8 c -0.1,0 0,0.1 0,0 z" />
    <path
       style="stroke:#ff0000;stroke-width:0.01;stroke-miterlimit:4;stroke-dasharray:none;stroke-opacity:1"
       id="path114"
       stroke-width="0.20"
       stroke="rgb(0,0,255)"
       d="m 406.7,50.775 v -2.9 c 0,-0.1 -0.1,0 0,0 h 2.8 c 0.1,0 0,-0.1 0,0 v 5.8 c 0,0.1 0.1,0 0,0 h -2.8 c -0.1,0 0,0.1 0,0 z" />
    <path
       style="stroke:#ff0000;stroke-width:0.01;stroke-miterlimit:4;stroke-dasharray:none;stroke-opacity:1"
       id="path116"
       stroke-width="0.20"
       stroke="rgb(0,0,255)"
       d="m 406.7,62.775 v -2.9 c 0,-0.1 -0.1,0 0,0 h 2.8 c 0.1,0 0,-0.1 0,0 v 5.8 c 0,0.1 0.1,0 0,0 h -2.8 c -0.1,0 0,0.1 0,0 z" />
    <path
       style="stroke:#ff0000;stroke-width:0.01;stroke-miterlimit:4;stroke-dasharray:none;stroke-opacity:1"
       id="path118"
       stroke-width="0.20"
       stroke="rgb(0,0,255)"
       d="m 406.7,74.775 v -2.9 c 0,-0.1 -0.1,0 0,0 h 2.8 c 0.1,0 0,-0.1 0,0 v 5.8 c 0,0.1 0.1,0 0,0 h -2.8 c -0.1,0 0,0.1 0,0 z" />
    <path
       style="stroke:#ff0000;stroke-width:0.01;stroke-miterlimit:4;stroke-dasharray:none;stroke-opacity:1"
       id="path120"
       stroke-width="0.20"
       stroke="rgb(0,0,255)"
       d="m 360.6,20.7 v -4.4 c 0,-0.1 -0.1,0 0,0 h 2.8 c 0.1,0 0,-0.1 0,0 v 2.75 c 0,0.055 0.045,0.1 0.1,0.1 h 6 c 0.055,0 0.1,-0.045 0.1,-0.1 V 16.3 c 0,-0.1 -0.1,0 0,0 h 2.8 c 0.1,0 0,-0.1 0,0 v 8.8 c 0,0.1 0.1,0 0,0 h -2.8 c -0.1,0 0,0.1 0,0 v -2.75 c 0,-0.055 -0.045,-0.1 -0.1,-0.1 h -6 c -0.055,0 -0.1,0.045 -0.1,0.1 v 2.75 c 0,0.1 0.1,0 0,0 h -2.8 c -0.1,0 0,0.1 0,0 z" />
  </g>
  <g
     transform="rotate(90,380.70065,7.4150635)"
     style="fill:none;stroke:#ff0000;stroke-width:0.01;stroke-linecap:round;stroke-linejoin:round;stroke-miterlimit:4;stroke-dasharray:none;stroke-opacity:1"
     id="p-9">
    <path
       style="stroke:#ff0000;stroke-width:0.01;stroke-miterlimit:4;stroke-dasharray:none;stroke-opacity:1"
       id="path123"
       stroke-width="0.20"
       stroke="rgb(0,0,0)"
       d="m 417.3,100.2 h 6 c 0.055,0 0.1,-0.045 0.1,-0.1 v -3 -53.85 -3 c 0,-0.055 -0.045,-0.1 -0.1,-0.1 h -6 c -0.055,0 -0.1,0.045 -0.1,0.1 v 3 5.825 c 0,0.1 0.1,0 0,0 h -2.9 c -0.055,0 -0.1,0.045 -0.1,0.1 v 6 c 0,0.055 0.045,0.1 0.1,0.1 h 2.9 c 0.1,0 0,-0.1 0,0 v 5.8 c 0,0.1 0.1,0 0,0 h -2.9 c -0.055,0 -0.1,0.045 -0.1,0.1 v 6 c 0,0.055 0.045,0.1 0.1,0.1 h 2.9 c 0.1,0 0,-0.1 0,0 v 5.8 c 0,0.1 0.1,0 0,0 h -2.9 c -0.055,0 -0.1,0.045 -0.1,0.1 v 6 c 0,0.055 0.045,0.1 0.1,0.1 h 2.9 c 0.1,0 0,-0.1 0,0 v 5.8 c 0,0.1 0.1,0 0,0 h -2.9 c -0.055,0 -0.1,0.045 -0.1,0.1 v 6 c 0,0.055 0.045,0.1 0.1,0.1 h 2.9 c 0.1,0 0,-0.1 0,0 v 5.825 3 c 0,0.055 0.045,0.1 0.1,0.1 z" />
  </g>
  <g
     transform="rotate(90,380.70065,7.4150635)"
     style="fill:none;stroke:#ff0000;stroke-width:0.01;stroke-linecap:round;stroke-linejoin:round;stroke-miterlimit:4;stroke-dasharray:none;stroke-opacity:1"
     id="p-10">
    <path
       style="stroke:#ff0000;stroke-width:0.01;stroke-miterlimit:4;stroke-dasharray:none;stroke-opacity:1"
       id="path126"
       stroke-width="0.20"
       stroke="rgb(0,0,0)"
       d="m 428,100.2 h 6 c 0.055,0 0.1,-0.045 0.1,-0.1 v -3 -53.85 -3 c 0,-0.055 -0.045,-0.1 -0.1,-0.1 h -6 c -0.055,0 -0.1,0.045 -0.1,0.1 v 3 5.825 c 0,0.1 0.1,0 0,0 H 425 c -0.055,0 -0.1,0.045 -0.1,0.1 v 6 c 0,0.055 0.045,0.1 0.1,0.1 h 2.9 c 0.1,0 0,-0.1 0,0 v 5.8 c 0,0.1 0.1,0 0,0 H 425 c -0.055,0 -0.1,0.045 -0.1,0.1 v 6 c 0,0.055 0.045,0.1 0.1,0.1 h 2.9 c 0.1,0 0,-0.1 0,0 v 5.8 c 0,0.1 0.1,0 0,0 H 425 c -0.055,0 -0.1,0.045 -0.1,0.1 v 6 c 0,0.055 0.045,0.1 0.1,0.1 h 2.9 c 0.1,0 0,-0.1 0,0 v 5.8 c 0,0.1 0.1,0 0,0 H 425 c -0.055,0 -0.1,0.045 -0.1,0.1 v 6 c 0,0.055 0.045,0.1 0.1,0.1 h 2.9 c 0.1,0 0,-0.1 0,0 v 5.825 3 c 0,0.055 0.045,0.1 0.1,0.1 z" />
  </g>
  <g
     transform="rotate(90,380.70065,7.4150635)"
     style="fill:none;stroke:#ff0000;stroke-width:0.01;stroke-linecap:round;stroke-linejoin:round;stroke-miterlimit:4;stroke-dasharray:none;stroke-opacity:1"
     id="p-11">
    <path
       style="stroke:#ff0000;stroke-width:0.01;stroke-miterlimit:4;stroke-dasharray:none;stroke-opacity:1"
       id="path129"
       stroke-width="0.20"
       stroke="rgb(0,0,0)"
       d="m 438.7,100.2 h 6 c 0.055,0 0.1,-0.045 0.1,-0.1 v -3 -53.85 -3 c 0,-0.055 -0.045,-0.1 -0.1,-0.1 h -6 c -0.055,0 -0.1,0.045 -0.1,0.1 v 3 5.825 c 0,0.1 0.1,0 0,0 h -2.9 c -0.055,0 -0.1,0.045 -0.1,0.1 v 6 c 0,0.055 0.045,0.1 0.1,0.1 h 2.9 c 0.1,0 0,-0.1 0,0 v 5.8 c 0,0.1 0.1,0 0,0 h -2.9 c -0.055,0 -0.1,0.045 -0.1,0.1 v 6 c 0,0.055 0.045,0.1 0.1,0.1 h 2.9 c 0.1,0 0,-0.1 0,0 v 5.8 c 0,0.1 0.1,0 0,0 h -2.9 c -0.055,0 -0.1,0.045 -0.1,0.1 v 6 c 0,0.055 0.045,0.1 0.1,0.1 h 2.9 c 0.1,0 0,-0.1 0,0 v 5.8 c 0,0.1 0.1,0 0,0 h -2.9 c -0.055,0 -0.1,0.045 -0.1,0.1 v 6 c 0,0.055 0.045,0.1 0.1,0.1 h 2.9 c 0.1,0 0,-0.1 0,0 v 5.825 3 c 0,0.055 0.045,0.1 0.1,0.1 z" />
  </g>
  <g
     transform="rotate(90,380.70065,7.4150635)"
     style="fill:none;stroke:#ff0000;stroke-width:0.01;stroke-linecap:round;stroke-linejoin:round;stroke-miterlimit:4;stroke-dasharray:none;stroke-opacity:1"
     id="p-12">
    <path
       style="stroke:#ff0000;stroke-width:0.01;stroke-miterlimit:4;stroke-dasharray:none;stroke-opacity:1"
       id="path132"
       stroke-width="0.20"
       stroke="rgb(0,0,0)"
       d="m 449.4,100.2 h 6 c 0.055,0 0.1,-0.045 0.1,-0.1 v -3 -53.85 -3 c 0,-0.055 -0.045,-0.1 -0.1,-0.1 h -6 c -0.055,0 -0.1,0.045 -0.1,0.1 v 3 5.825 c 0,0.1 0.1,0 0,0 h -2.9 c -0.055,0 -0.1,0.045 -0.1,0.1 v 6 c 0,0.055 0.045,0.1 0.1,0.1 h 2.9 c 0.1,0 0,-0.1 0,0 v 5.8 c 0,0.1 0.1,0 0,0 h -2.9 c -0.055,0 -0.1,0.045 -0.1,0.1 v 6 c 0,0.055 0.045,0.1 0.1,0.1 h 2.9 c 0.1,0 0,-0.1 0,0 v 5.8 c 0,0.1 0.1,0 0,0 h -2.9 c -0.055,0 -0.1,0.045 -0.1,0.1 v 6 c 0,0.055 0.045,0.1 0.1,0.1 h 2.9 c 0.1,0 0,-0.1 0,0 v 5.8 c 0,0.1 0.1,0 0,0 h -2.9 c -0.055,0 -0.1,0.045 -0.1,0.1 v 6 c 0,0.055 0.045,0.1 0.1,0.1 h 2.9 c 0.1,0 0,-0.1 0,0 v 5.825 3 c 0,0.055 0.045,0.1 0.1,0.1 z" />
  </g>
  <g
     transform="rotate(90,380.70065,7.4150635)"
     style="fill:none;stroke:#ff0000;stroke-width:0.01;stroke-linecap:round;stroke-linejoin:round;stroke-miterlimit:4;stroke-dasharray:none;stroke-opacity:1"
     id="p-13">
    <path
       style="stroke:#ff0000;stroke-width:0.01;stroke-miterlimit:4;stroke-dasharray:none;stroke-opacity:1"
       id="path135"
       stroke-width="0.20"
       stroke="rgb(0,0,0)"
       d="m 457.1,96.6 h 2.9 c 0.1,0 0,-0.1 0,0 v 0.5 c 0,0.055 0.045,0.1 0.1,0.1 h 5.9 c 0.1,0 0,-0.1 0,0 v 2.9 c 0,0.055 0.045,0.1 0.1,0.1 h 3 c 0.055,0 0.1,-0.045 0.1,-0.1 v -2.9 c 0,-0.1 -0.1,0 0,0 h 8.9 c 0.055,0 0.1,-0.045 0.1,-0.1 v -2.9 c 0,-0.1 -0.1,0 0,0 h 2.9 c 0.055,0 0.1,-0.045 0.1,-0.1 v -3 c 0,-0.055 -0.045,-0.1 -0.1,-0.1 h -6 c -0.055,0 -0.1,0.045 -0.1,0.1 v 1.393 c 0,0.107 0.107,0.007 0,0 l -14.557,-1.018 c -0.058,-0.004 -0.107,0.042 -0.107,0.1 v 1.5 c 0,0.052 0.04,0.096 0.093,0.099 l 14.664,1.026 c -0.021,-0.002 -0.04,-0.009 -0.056,-0.023 -0.016,-0.013 -0.028,-0.03 -0.033,-0.05 -0.006,-0.02 -0.005,-0.041 0.002,-0.061 0.007,-0.019 0.019,-0.036 0.036,-0.048 C 475.059,94.006 475.079,94 475.1,94 h -14.9 c -0.1,0 0,0.1 0,0 v -2.9 c 0,-0.055 -0.045,-0.1 -0.1,-0.1 h -3 c -0.055,0 -0.1,0.045 -0.1,0.1 v 5.4 c 0,0.055 0.045,0.1 0.1,0.1 z" />
  </g>
  <g
     transform="rotate(90,380.70065,7.4150635)"
     style="fill:none;stroke:#ff0000;stroke-width:0.01;stroke-linecap:round;stroke-linejoin:round;stroke-miterlimit:4;stroke-dasharray:none;stroke-opacity:1"
     id="p-14">
    <path
       style="stroke:#ff0000;stroke-width:0.01;stroke-miterlimit:4;stroke-dasharray:none;stroke-opacity:1"
       id="path138"
       stroke-width="0.20"
       stroke="rgb(0,0,0)"
       d="m 482.8,96.6 h 2.9 c 0.1,0 0,-0.1 0,0 v 0.5 c 0,0.055 0.045,0.1 0.1,0.1 h 5.9 c 0.1,0 0,-0.1 0,0 v 2.9 c 0,0.055 0.045,0.1 0.1,0.1 h 3 c 0.055,0 0.1,-0.045 0.1,-0.1 v -2.9 c 0,-0.1 -0.1,0 0,0 h 8.9 c 0.055,0 0.1,-0.045 0.1,-0.1 v -2.9 c 0,-0.1 -0.1,0 0,0 h 2.9 c 0.055,0 0.1,-0.045 0.1,-0.1 v -3 c 0,-0.055 -0.045,-0.1 -0.1,-0.1 h -6 c -0.055,0 -0.1,0.045 -0.1,0.1 v 1.393 c 0,0.107 0.107,0.007 0,0 l -14.557,-1.018 c -0.058,-0.004 -0.107,0.042 -0.107,0.1 v 1.5 c 0,0.052 0.04,0.096 0.093,0.099 l 14.664,1.026 c -0.021,-0.002 -0.04,-0.009 -0.056,-0.023 -0.016,-0.013 -0.028,-0.03 -0.033,-0.05 -0.006,-0.02 -0.005,-0.041 0.002,-0.061 0.007,-0.019 0.019,-0.036 0.036,-0.048 C 500.759,94.006 500.779,94 500.8,94 h -14.9 c -0.1,0 0,0.1 0,0 v -2.9 c 0,-0.055 -0.045,-0.1 -0.1,-0.1 h -3 c -0.055,0 -0.1,0.045 -0.1,0.1 v 5.4 c 0,0.055 0.045,0.1 0.1,0.1 z" />
  </g>
  <g
     transform="rotate(90,380.70065,7.4150635)"
     style="fill:none;stroke:#ff0000;stroke-width:0.01;stroke-linecap:round;stroke-linejoin:round;stroke-miterlimit:4;stroke-dasharray:none;stroke-opacity:1"
     id="p-15">
    <path
       style="stroke:#ff0000;stroke-width:0.01;stroke-miterlimit:4;stroke-dasharray:none;stroke-opacity:1"
       id="path141"
       stroke-width="0.20"
       stroke="rgb(0,0,0)"
       d="m 457.1,85.9 h 2.9 c 0.1,0 0,-0.1 0,0 v 0.5 c 0,0.055 0.045,0.1 0.1,0.1 h 5.9 c 0.1,0 0,-0.1 0,0 v 2.9 c 0,0.055 0.045,0.1 0.1,0.1 h 3 c 0.055,0 0.1,-0.045 0.1,-0.1 v -2.9 c 0,-0.1 -0.1,0 0,0 h 8.9 c 0.055,0 0.1,-0.045 0.1,-0.1 v -2.9 c 0,-0.1 -0.1,0 0,0 h 2.9 c 0.055,0 0.1,-0.045 0.1,-0.1 v -3 c 0,-0.055 -0.045,-0.1 -0.1,-0.1 h -6 c -0.055,0 -0.1,0.045 -0.1,0.1 v 1.393 c 0,0.107 0.107,0.007 0,0 l -14.557,-1.018 c -0.058,-0.004 -0.107,0.042 -0.107,0.1 v 1.5 c 0,0.052 0.04,0.096 0.093,0.099 l 14.664,1.026 c -0.021,-0.002 -0.04,-0.009 -0.056,-0.023 -0.016,-0.013 -0.028,-0.03 -0.033,-0.05 -0.006,-0.02 -0.005,-0.041 0.002,-0.061 0.007,-0.019 0.019,-0.036 0.036,-0.048 0.017,-0.012 0.037,-0.018 0.058,-0.018 h -14.9 c -0.1,0 0,0.1 0,0 v -2.9 c 0,-0.055 -0.045,-0.1 -0.1,-0.1 h -3 c -0.055,0 -0.1,0.045 -0.1,0.1 v 5.4 c 0,0.055 0.045,0.1 0.1,0.1 z" />
  </g>
  <g
     transform="rotate(90,380.70065,7.4150635)"
     style="fill:none;stroke:#ff0000;stroke-width:0.01;stroke-linecap:round;stroke-linejoin:round;stroke-miterlimit:4;stroke-dasharray:none;stroke-opacity:1"
     id="p-16">
    <path
       style="stroke:#ff0000;stroke-width:0.01;stroke-miterlimit:4;stroke-dasharray:none;stroke-opacity:1"
       id="path144"
       stroke-width="0.20"
       stroke="rgb(0,0,0)"
       d="m 482.8,85.9 h 2.9 c 0.1,0 0,-0.1 0,0 v 0.5 c 0,0.055 0.045,0.1 0.1,0.1 h 5.9 c 0.1,0 0,-0.1 0,0 v 2.9 c 0,0.055 0.045,0.1 0.1,0.1 h 3 c 0.055,0 0.1,-0.045 0.1,-0.1 v -2.9 c 0,-0.1 -0.1,0 0,0 h 8.9 c 0.055,0 0.1,-0.045 0.1,-0.1 v -2.9 c 0,-0.1 -0.1,0 0,0 h 2.9 c 0.055,0 0.1,-0.045 0.1,-0.1 v -3 c 0,-0.055 -0.045,-0.1 -0.1,-0.1 h -6 c -0.055,0 -0.1,0.045 -0.1,0.1 v 1.393 c 0,0.107 0.107,0.007 0,0 l -14.557,-1.018 c -0.058,-0.004 -0.107,0.042 -0.107,0.1 v 1.5 c 0,0.052 0.04,0.096 0.093,0.099 l 14.664,1.026 c -0.021,-0.002 -0.04,-0.009 -0.056,-0.023 -0.016,-0.013 -0.028,-0.03 -0.033,-0.05 -0.006,-0.02 -0.005,-0.041 0.002,-0.061 0.007,-0.019 0.019,-0.036 0.036,-0.048 0.017,-0.012 0.037,-0.018 0.058,-0.018 h -14.9 c -0.1,0 0,0.1 0,0 v -2.9 c 0,-0.055 -0.045,-0.1 -0.1,-0.1 h -3 c -0.055,0 -0.1,0.045 -0.1,0.1 v 5.4 c 0,0.055 0.045,0.1 0.1,0.1 z" />
  </g>
  <g
     transform="rotate(90,380.70065,7.4150635)"
     style="fill:none;stroke:#ff0000;stroke-width:0.01;stroke-linecap:round;stroke-linejoin:round;stroke-miterlimit:4;stroke-dasharray:none;stroke-opacity:1"
     id="p-17">
    <path
       style="stroke:#ff0000;stroke-width:0.01;stroke-miterlimit:4;stroke-dasharray:none;stroke-opacity:1"
       id="path147"
       stroke-width="0.20"
       stroke="rgb(0,0,0)"
       d="m 458.6,78.8 h 2.85 c 0.055,0 0.1,-0.045 0.1,-0.1 v -7.55 c 0,-0.1 -0.1,0 0,0 h 3.1 c 0.1,0 0,-0.1 0,0 v 7.55 c 0,0.055 0.045,0.1 0.1,0.1 h 2.85 c 0.055,0 0.1,-0.045 0.1,-0.1 v -2.9 c 0,-0.1 -0.1,0 0,0 h 1.4 c 0.055,0 0.1,-0.045 0.1,-0.1 v -6 c 0,-0.027 -0.011,-0.052 -0.029,-0.071 l -3,-3 C 466.152,66.611 466.127,66.6 466.1,66.6 h -6 c -0.027,0 -0.052,0.011 -0.071,0.029 l -3,3 C 457.011,69.648 457,69.673 457,69.7 v 6 c 0,0.055 0.045,0.1 0.1,0.1 h 1.4 c 0.1,0 0,-0.1 0,0 v 2.9 c 0,0.055 0.045,0.1 0.1,0.1 z" />
  </g>
  <g
     transform="rotate(90,380.70065,7.4150635)"
     style="fill:none;stroke:#ff0000;stroke-width:0.01;stroke-linecap:round;stroke-linejoin:round;stroke-miterlimit:4;stroke-dasharray:none;stroke-opacity:1"
     id="p-18">
    <path
       style="stroke:#ff0000;stroke-width:0.01;stroke-miterlimit:4;stroke-dasharray:none;stroke-opacity:1"
       id="path150"
       stroke-width="0.20"
       stroke="rgb(0,0,0)"
       d="m 472.3,78.8 h 2.85 c 0.055,0 0.1,-0.045 0.1,-0.1 v -7.55 c 0,-0.1 -0.1,0 0,0 h 3.1 c 0.1,0 0,-0.1 0,0 v 7.55 c 0,0.055 0.045,0.1 0.1,0.1 h 2.85 c 0.055,0 0.1,-0.045 0.1,-0.1 v -2.9 c 0,-0.1 -0.1,0 0,0 h 1.4 c 0.055,0 0.1,-0.045 0.1,-0.1 v -6 c 0,-0.027 -0.011,-0.052 -0.029,-0.071 l -3,-3 C 479.852,66.611 479.827,66.6 479.8,66.6 h -6 c -0.027,0 -0.052,0.011 -0.071,0.029 l -3,3 c -0.018,0.019 -0.029,0.044 -0.029,0.071 v 6 c 0,0.055 0.045,0.1 0.1,0.1 h 1.4 c 0.1,0 0,-0.1 0,0 v 2.9 c 0,0.055 0.045,0.1 0.1,0.1 z" />
  </g>
  <g
     transform="rotate(90,380.70065,7.4150635)"
     style="fill:none;stroke:#ff0000;stroke-width:0.01;stroke-linecap:round;stroke-linejoin:round;stroke-miterlimit:4;stroke-dasharray:none;stroke-opacity:1"
     id="p-19">
    <path
       style="stroke:#ff0000;stroke-width:0.01;stroke-miterlimit:4;stroke-dasharray:none;stroke-opacity:1"
       id="path153"
       stroke-width="0.20"
       stroke="rgb(0,0,0)"
       d="m 458.6,65.1 h 2.85 c 0.055,0 0.1,-0.045 0.1,-0.1 v -7.55 c 0,-0.1 -0.1,0 0,0 h 3.1 c 0.1,0 0,-0.1 0,0 V 65 c 0,0.055 0.045,0.1 0.1,0.1 h 2.85 c 0.055,0 0.1,-0.045 0.1,-0.1 v -2.9 c 0,-0.1 -0.1,0 0,0 h 1.4 c 0.055,0 0.1,-0.045 0.1,-0.1 v -6 c 0,-0.027 -0.011,-0.052 -0.029,-0.071 l -3,-3 C 466.152,52.911 466.127,52.9 466.1,52.9 h -6 c -0.027,0 -0.052,0.011 -0.071,0.029 l -3,3 C 457.011,55.948 457,55.973 457,56 v 6 c 0,0.055 0.045,0.1 0.1,0.1 h 1.4 c 0.1,0 0,-0.1 0,0 V 65 c 0,0.055 0.045,0.1 0.1,0.1 z" />
  </g>
  <g
     transform="rotate(90,380.70065,7.4150635)"
     style="fill:none;stroke:#ff0000;stroke-width:0.01;stroke-linecap:round;stroke-linejoin:round;stroke-miterlimit:4;stroke-dasharray:none;stroke-opacity:1"
     id="p-20">
    <path
       style="stroke:#ff0000;stroke-width:0.01;stroke-miterlimit:4;stroke-dasharray:none;stroke-opacity:1"
       id="path156"
       stroke-width="0.20"
       stroke="rgb(0,0,0)"
       d="m 472.3,65.1 h 2.85 c 0.055,0 0.1,-0.045 0.1,-0.1 v -7.55 c 0,-0.1 -0.1,0 0,0 h 3.1 c 0.1,0 0,-0.1 0,0 V 65 c 0,0.055 0.045,0.1 0.1,0.1 h 2.85 c 0.055,0 0.1,-0.045 0.1,-0.1 v -2.9 c 0,-0.1 -0.1,0 0,0 h 1.4 c 0.055,0 0.1,-0.045 0.1,-0.1 v -6 c 0,-0.027 -0.011,-0.052 -0.029,-0.071 l -3,-3 C 479.852,52.911 479.827,52.9 479.8,52.9 h -6 c -0.027,0 -0.052,0.011 -0.071,0.029 l -3,3 C 470.711,55.948 470.7,55.973 470.7,56 v 6 c 0,0.055 0.045,0.1 0.1,0.1 h 1.4 c 0.1,0 0,-0.1 0,0 V 65 c 0,0.055 0.045,0.1 0.1,0.1 z" />
  </g>
  <g
     transform="rotate(90,380.70065,7.4150635)"
     style="fill:none;stroke:#ff0000;stroke-width:0.01;stroke-linecap:round;stroke-linejoin:round;stroke-miterlimit:4;stroke-dasharray:none;stroke-opacity:1"
     id="p-21">
    <path
       style="stroke:#ff0000;stroke-width:0.01;stroke-miterlimit:4;stroke-dasharray:none;stroke-opacity:1"
       id="path159"
       stroke-width="0.20"
       stroke="rgb(0,0,0)"
       d="m 458.6,51.4 h 2.85 c 0.055,0 0.1,-0.045 0.1,-0.1 v -7.55 c 0,-0.1 -0.1,0 0,0 h 3.1 c 0.1,0 0,-0.1 0,0 v 7.55 c 0,0.055 0.045,0.1 0.1,0.1 h 2.85 c 0.055,0 0.1,-0.045 0.1,-0.1 v -2.9 c 0,-0.1 -0.1,0 0,0 h 1.4 c 0.055,0 0.1,-0.045 0.1,-0.1 v -6 c 0,-0.027 -0.011,-0.052 -0.029,-0.071 l -3,-3 C 466.152,39.211 466.127,39.2 466.1,39.2 h -6 c -0.027,0 -0.052,0.011 -0.071,0.029 l -3,3 C 457.011,42.248 457,42.273 457,42.3 v 6 c 0,0.055 0.045,0.1 0.1,0.1 h 1.4 c 0.1,0 0,-0.1 0,0 v 2.9 c 0,0.055 0.045,0.1 0.1,0.1 z" />
  </g>
  <g
     transform="rotate(90,380.70065,7.4150635)"
     style="fill:none;stroke:#ff0000;stroke-width:0.01;stroke-linecap:round;stroke-linejoin:round;stroke-miterlimit:4;stroke-dasharray:none;stroke-opacity:1"
     id="p-22">
    <path
       style="stroke:#ff0000;stroke-width:0.01;stroke-miterlimit:4;stroke-dasharray:none;stroke-opacity:1"
       id="path162"
       stroke-width="0.20"
       stroke="rgb(0,0,0)"
       d="m 472.3,51.4 h 2.85 c 0.055,0 0.1,-0.045 0.1,-0.1 v -7.55 c 0,-0.1 -0.1,0 0,0 h 3.1 c 0.1,0 0,-0.1 0,0 v 7.55 c 0,0.055 0.045,0.1 0.1,0.1 h 2.85 c 0.055,0 0.1,-0.045 0.1,-0.1 v -2.9 c 0,-0.1 -0.1,0 0,0 h 1.4 c 0.055,0 0.1,-0.045 0.1,-0.1 v -6 c 0,-0.027 -0.011,-0.052 -0.029,-0.071 l -3,-3 C 479.852,39.211 479.827,39.2 479.8,39.2 h -6 c -0.027,0 -0.052,0.011 -0.071,0.029 l -3,3 c -0.018,0.019 -0.029,0.044 -0.029,0.071 v 6 c 0,0.055 0.045,0.1 0.1,0.1 h 1.4 c 0.1,0 0,-0.1 0,0 v 2.9 c 0,0.055 0.045,0.1 0.1,0.1 z" />
  </g>
  <g
     transform="rotate(90,346.46879,0.4595865)"
     style="fill:none;stroke:#ff0000;stroke-width:0.01;stroke-linecap:round;stroke-linejoin:round;stroke-miterlimit:4;stroke-dasharray:none;stroke-opacity:1"
     id="p-23">
    <path
       style="stroke:#ff0000;stroke-width:0.01;stroke-miterlimit:4;stroke-dasharray:none;stroke-opacity:1"
       id="path165"
       stroke-width="0.20"
       stroke="rgb(0,0,0)"
       d="m 458.6,37.7 h 2.85 c 0.055,0 0.1,-0.045 0.1,-0.1 v -7.55 c 0,-0.1 -0.1,0 0,0 h 3.1 c 0.1,0 0,-0.1 0,0 v 7.55 c 0,0.055 0.045,0.1 0.1,0.1 h 2.85 c 0.055,0 0.1,-0.045 0.1,-0.1 v -2.9 c 0,-0.1 -0.1,0 0,0 h 1.4 c 0.055,0 0.1,-0.045 0.1,-0.1 v -6 c 0,-0.027 -0.011,-0.052 -0.029,-0.071 l -3,-3 C 466.152,25.511 466.127,25.5 466.1,25.5 h -6 c -0.027,0 -0.052,0.011 -0.071,0.029 l -3,3 C 457.011,28.548 457,28.573 457,28.6 v 6 c 0,0.055 0.045,0.1 0.1,0.1 h 1.4 c 0.1,0 0,-0.1 0,0 v 2.9 c 0,0.055 0.045,0.1 0.1,0.1 z" />
  </g>
  <g
     transform="rotate(90,346.46879,0.4595865)"
     style="fill:none;stroke:#ff0000;stroke-width:0.01;stroke-linecap:round;stroke-linejoin:round;stroke-miterlimit:4;stroke-dasharray:none;stroke-opacity:1"
     id="p-24">
    <path
       style="stroke:#ff0000;stroke-width:0.01;stroke-miterlimit:4;stroke-dasharray:none;stroke-opacity:1"
       id="path168"
       stroke-width="0.20"
       stroke="rgb(0,0,0)"
       d="m 472.3,37.7 h 2.85 c 0.055,0 0.1,-0.045 0.1,-0.1 v -7.55 c 0,-0.1 -0.1,0 0,0 h 3.1 c 0.1,0 0,-0.1 0,0 v 7.55 c 0,0.055 0.045,0.1 0.1,0.1 h 2.85 c 0.055,0 0.1,-0.045 0.1,-0.1 v -2.9 c 0,-0.1 -0.1,0 0,0 h 1.4 c 0.055,0 0.1,-0.045 0.1,-0.1 v -6 c 0,-0.027 -0.011,-0.052 -0.029,-0.071 l -3,-3 C 479.852,25.511 479.827,25.5 479.8,25.5 h -6 c -0.027,0 -0.052,0.011 -0.071,0.029 l -3,3 c -0.018,0.019 -0.029,0.044 -0.029,0.071 v 6 c 0,0.055 0.045,0.1 0.1,0.1 h 1.4 c 0.1,0 0,-0.1 0,0 v 2.9 c 0,0.055 0.045,0.1 0.1,0.1 z" />
  </g>
  <rect
     y="54.493313"
     x="219.53842"
     height="11.411732"
     width="10.411731"
     id="rect1157"
     style="fill:none;stroke:#ff0000;stroke-width:0.01;stroke-linecap:round;stroke-miterlimit:4;stroke-dasharray:none;stroke-opacity:1;paint-order:fill markers stroke" />
  <rect
     style="fill:none;stroke:#ff0000;stroke-width:0.01;stroke-linecap:round;stroke-miterlimit:4;stroke-dasharray:none;stroke-opacity:1;paint-order:fill markers stroke"
     id="rect1157-9"
     width="10.490656"
     height="8.4906559"
     x="219.33165"
     y="81.508171" />
</svg>
